<svg width="120" height="101" viewBox="0 0 120 101" fill="none" xmlns="http://www.w3.org/2000/svg">
<path fill-rule="evenodd" clip-rule="evenodd" d="M34.2108 99.7613C34.2108 99.7613 33.5666 99.9065 32.8899 99.8858C32.2268 99.8661 30.7786 99.6754 31.1086 99.6773C31.4387 99.6792 31.8545 99.088 31.8545 99.088L31.2777 99.0018L31.2637 98.5399L32.1882 98.5289L38.622 84.5549C38.622 84.5549 39.4143 84.5431 39.431 84.4772C38.6392 84.4563 38.1107 84.5026 38.0455 84.4031C38.0956 84.2716 45.0109 68.9371 45.1998 68.602C45.2831 68.454 45.959 68.5403 45.959 68.5403L46.5758 64.5832L46.048 64.5639C46.048 64.5639 47.2677 56.2369 47.1205 56.0051C46.9734 55.7734 38.01 56.1676 31.9393 55.7362C25.8691 55.3051 22.6056 54.6098 21.4356 54.3061C20.3437 54.0226 20.0994 54.249 19.6341 54.7743C19.1689 55.2995 11.2525 65.8649 10.5711 66.7523C9.90168 67.6236 9.59799 67.6381 9.19643 67.6358C8.66853 67.6328 5.18638 67.6291 5.18638 67.6291L8.86876 52.8804C8.86876 52.8804 7.40098 52.7891 7.18761 52.5737C6.97387 52.3575 7.05924 51.9129 7.05924 51.9129C7.05924 51.9129 4.00785 51.5979 3.81097 51.4323C3.61405 51.266 3.51654 50.9851 3.51654 50.9851C3.51654 50.9851 0.371972 50.3085 0.291182 50.0052L0.287291 50.0052C0.287305 50.0028 0.288875 50.0005 0.28928 49.9989C0.288897 49.9966 0.287354 49.9943 0.287363 49.9927L0.291254 49.9927C0.375402 49.6904 3.52769 49.0496 3.52769 49.0496C3.52769 49.0496 3.62843 48.7695 3.82725 48.6058C4.02646 48.4421 7.08084 48.1627 7.08084 48.1627C7.08084 48.1627 7.0006 47.7168 7.21681 47.5034C7.43263 47.29 8.90138 47.2161 8.90138 47.2161L5.38914 32.426C5.38914 32.426 8.87105 32.4624 9.399 32.4654C9.80056 32.4677 10.1041 32.4858 10.7634 33.3643C11.4347 34.2591 19.2287 44.9153 19.6879 45.446C20.147 45.9765 20.3887 46.2057 21.4838 45.9348C22.6572 45.6446 25.9285 44.987 32.0033 44.6259C38.0785 44.2647 47.0367 44.7618 47.1866 44.5318C47.3364 44.3017 46.2128 35.9612 46.2128 35.9612L46.7408 35.948L46.1696 31.9841C46.1696 31.9841 45.4927 32.0626 45.4111 31.9136C45.2261 31.5763 38.4881 16.163 38.4393 16.0312C38.506 15.9324 39.0336 15.9852 39.8256 15.9731C39.8096 15.9069 39.0175 15.886 39.0175 15.886L32.7451 1.83835L31.8208 1.81671L31.8402 1.35497L32.4179 1.27589C32.4179 1.27589 32.0085 0.67951 31.6788 0.677612C31.3492 0.675713 32.7991 0.502127 33.4623 0.490007C34.1388 0.477575 34.7817 0.629782 34.7817 0.629782C34.7817 0.629782 34.636 0.150401 35.2627 0.203364C35.6626 0.237543 37.4829 1.48697 37.4829 1.48697C37.4829 1.48697 37.7565 1.57641 37.9501 1.56236C38.1753 1.54616 38.3187 1.82144 38.4466 1.9672C38.5203 2.05159 38.929 1.96103 38.929 1.96103C38.929 1.96103 42.8835 6.62681 49.074 14.7067C55.2547 22.7736 62.8346 32.3225 62.8346 32.3225C62.8346 32.3225 63.2746 32.3251 63.8913 32.2408C64.5076 32.1561 64.7723 32.0919 64.7723 32.0919C64.7723 32.0919 64.929 31.6088 65.3259 31.4789C65.6219 31.3823 67.7703 31.1412 69.7064 31.1962C71.6425 31.2513 72.6537 31.3672 72.9611 31.5011C73.2683 31.6347 73.4021 32.0817 73.4824 32.6482C73.5669 33.2427 73.4992 35.5475 73.4186 36.1024C73.3421 36.6291 73.2597 36.9599 72.5109 37.0434C71.7625 37.1269 69.1881 37.1343 68.1324 37.0621C67.3808 37.0107 66.5275 36.8107 66.4829 36.9204C66.4384 37.0302 68.2976 38.9551 69.0394 40.0157C69.7816 41.0762 71.3332 42.8892 71.8159 43.1122C72.2986 43.3351 72.3645 43.3576 71.9237 43.4868C71.4829 43.6161 71.043 43.5918 70.7361 43.4139C70.4292 43.236 70.0332 43.1459 69.8565 43.3206C69.79 43.3863 70.227 43.9168 70.4906 44.0504C70.7538 44.1841 71.2607 44.0549 71.4802 44.1444C71.6997 44.2339 72.3361 44.582 72.8641 44.5703C76.011 44.5005 80.7201 44.4208 91.0175 44.4548C102.037 44.4914 105.328 44.6196 111.208 46.0452C116.545 47.3394 117.596 48.2948 118.364 48.7853C119.074 49.2387 119.622 50.2561 119.629 50.6807L119.63 50.6807C119.63 50.6823 119.63 50.6846 119.63 50.6869C119.63 50.6885 119.63 50.6908 119.63 50.6931L119.629 50.6931C119.617 51.1172 119.057 52.1278 118.342 52.5731C117.569 53.0546 116.506 53.9974 111.155 55.2305C105.259 56.5883 101.967 56.6786 90.9476 56.5883C80.6505 56.5041 75.9422 56.3697 72.7967 56.2637C72.2689 56.2463 71.6286 56.5874 71.4081 56.674C71.1875 56.7606 70.6821 56.6259 70.4174 56.7566C70.1527 56.8868 69.7092 57.4122 69.7749 57.4787C69.95 57.6558 70.3467 57.5702 70.6556 57.3955C70.9645 57.2208 71.4046 57.2015 71.8439 57.3362C72.2832 57.471 72.217 57.4923 71.7318 57.71C71.2465 57.9268 69.6738 59.7224 68.9198 60.7743C68.1658 61.8262 66.2844 63.7296 66.3279 63.84C66.3712 63.9502 67.2268 63.76 67.9789 63.7173C69.0354 63.6573 71.6094 63.6943 72.3569 63.7864C73.1043 63.8786 73.1829 64.2103 73.2537 64.7378C73.3282 65.2938 73.369 67.5988 73.2777 68.1927C73.1905 68.7579 73.0519 69.2038 72.7432 69.3338C72.4346 69.4642 71.4217 69.5684 69.4852 69.6011C67.5487 69.6335 65.4031 69.3677 65.1083 69.2676C64.7129 69.1332 64.5617 68.6483 64.5617 68.6483C64.5617 68.6483 64.2982 68.5807 63.6825 68.4893C63.0669 68.3975 62.6268 68.395 62.6268 68.395C62.6268 68.395 54.937 77.856 48.6643 85.8509C42.3811 93.8592 38.3731 98.4793 38.3731 98.4793C38.3731 98.4793 37.9655 98.3837 37.8908 98.4676C37.7613 98.6119 37.6147 98.8855 37.3897 98.8663C37.1962 98.85 36.9216 98.9363 36.9216 98.9363C36.9216 98.9363 35.087 100.165 34.6868 100.195C34.0595 100.24 34.2108 99.762 34.2108 99.762L34.2108 99.7613ZM39.3943 3.54028L38.6867 2.60593L38.5813 2.6858L39.2951 3.62837L39.3943 3.54031L39.3943 3.54028ZM40.8133 5.41407L39.4742 3.6457L39.3749 3.73337L40.7087 5.49433L40.8133 5.41407L40.8133 5.41407ZM42.2355 7.29177L40.8932 5.51949L40.7882 5.59974L42.1219 7.36108L42.2355 7.29175L42.2355 7.29177ZM44.0268 9.65754L42.3153 7.39759L42.2018 7.46692L43.9195 9.73469L44.0268 9.65757L44.0268 9.65754ZM45.6785 11.839L44.1067 9.76256L43.9993 9.83968L45.5734 11.9181L45.6785 11.839L45.6785 11.839ZM47.3483 14.0443L45.7583 11.9444L45.6525 12.0239L47.2398 14.1199L47.3483 14.0443L47.3483 14.0443ZM49.0756 16.3246L47.4282 14.1493L47.32 14.2249L48.9779 16.4142L49.0756 16.3245L49.0756 16.3246ZM50.8183 18.6259L49.1555 16.4304L49.0578 16.5196L50.7091 18.7003L50.8183 18.6259L50.8183 18.6259ZM52.5464 20.9081L50.8982 18.7313L50.7889 18.8058L52.4321 20.9751L52.5465 20.9081L52.5464 20.9081ZM54.2622 23.1735L52.6271 21.0139L52.512 21.0809L54.1533 23.2484L54.2622 23.1736L54.2622 23.1735ZM55.9111 25.3515L54.3424 23.279L54.2335 23.3538L55.8053 25.4298L55.9111 25.3515L55.9111 25.3515ZM57.5586 27.5271L55.991 25.4569L55.8852 25.5356L57.4443 27.5945L57.5586 27.5271ZM59.5004 30.0904L57.6392 27.633L57.5245 27.7004L59.3768 30.1467L59.5004 30.0906L59.5004 30.0904ZM60.0078 30.7608L59.5818 30.1986L59.4586 30.2543L59.8815 30.8122L60.0078 30.7609L60.0078 30.7608ZM61.5977 32.8607L60.0903 30.8702L59.9637 30.9215L61.4927 32.9406L61.5977 32.8607L61.5977 32.8607ZM61.3962 67.8389L61.2917 67.7578L59.7396 69.7595L59.8656 69.8119L61.3962 67.8389ZM59.7822 69.9199L59.6562 69.8674L59.2269 70.4209L59.3494 70.4779L59.7822 69.9198L59.7822 69.9199ZM59.2672 70.5848L59.1443 70.5273L57.2639 72.9523L57.3778 73.0206L59.2672 70.5848L59.2672 70.5848ZM57.296 73.1255L57.1821 73.0568L55.5993 75.0976L55.7042 75.1775L57.296 73.1255ZM55.6236 75.282L55.5187 75.2021L53.923 77.2599L54.0311 77.3356L55.6236 75.282ZM53.9496 77.4408L53.8416 77.3648L52.1754 79.5132L52.2897 79.5815L53.9496 77.4408L53.9496 77.4408ZM52.2079 79.686L52.094 79.6177L50.4259 81.7684L50.5343 81.844L52.2079 79.686L52.2079 79.686ZM50.4536 81.9485L50.3456 81.8728L48.6693 84.034L48.7659 84.1247L50.4536 81.9485L50.4536 81.9485ZM48.6845 84.2296L48.5878 84.1393L46.9049 86.3093L47.0121 86.3857L48.6845 84.2296L48.6845 84.2296ZM46.931 86.4899L46.8238 86.4134L45.2125 88.491L45.3174 88.5713L46.931 86.4899L46.931 86.4899ZM45.2359 88.6758L45.1314 88.5955L43.5334 90.6556L43.6399 90.7336L45.2359 88.6758ZM43.5592 90.8381L43.4532 90.7601L41.7095 93.0083L41.8222 93.0789L43.5592 90.8381ZM41.7408 93.183L41.6284 93.1124L40.2744 94.8583L40.3786 94.9397L41.7408 93.183ZM40.2971 95.0442L40.1934 94.9628L38.8394 96.7083L38.9377 96.7975L40.2971 95.0443L40.2971 95.0442ZM38.8566 96.9019L38.7584 96.8127L38.0338 97.747L38.1383 97.8277L38.8566 96.9019Z" fill="#F9F2F8"/>
</svg>
